<svg xmlns="http://www.w3.org/2000/svg" width="196" height="196" viewBox="0 0 196 196">
  <defs>
    <style>
      .cls-1 {
        fill: #c5d0d8;
        fill-rule: evenodd;
      }
    </style>
  </defs>
  <path id="logo_210626_40px" class="cls-1" d="M168.756,196.2a27.44,27.44,0,0,1-27.44-27.44V27.636a19.6,19.6,0,1,0-39.2,0V59a3.92,3.92,0,0,1-7.84,0V27.636a27.44,27.44,0,0,1,54.88,0V59a3.92,3.92,0,0,0,3.92,3.92h31.36a3.92,3.92,0,0,0,3.92-3.92V11.956a3.92,3.92,0,1,1,7.84,0V75.264h0v93.492A27.44,27.44,0,0,1,168.756,196.2Zm15.68-125.44h-31.36a3.92,3.92,0,0,0-3.92,3.92v94.08a19.6,19.6,0,0,0,39.2,0V74.676A3.92,3.92,0,0,0,184.436,70.756Zm-90.16,50.372V74.676a3.92,3.92,0,0,1,7.84,0v94.08a27.44,27.44,0,0,1-54.88,0V27.636a19.6,19.6,0,1,0-39.2,0V59A3.92,3.92,0,1,1,.2,59V27.636a27.44,27.44,0,0,1,54.88,0v141.12a19.6,19.6,0,0,0,39.2,0V121.128ZM4.116,70.756a3.92,3.92,0,0,1,3.92,3.92v109.76a3.92,3.92,0,1,1-7.84,0V74.676A3.92,3.92,0,0,1,4.116,70.756Z"/>
</svg>
