<svg xmlns="http://www.w3.org/2000/svg" width="196" height="196" viewBox="0 0 196 196">
  <defs>
    <style>
      .cls-1 {
        fill: #c5d0d8;
        fill-rule: evenodd;
      }
    </style>
  </defs>
  <path id="logo_210626_40px" class="cls-1" d="M167.7,31.481V67.805a3.027,3.027,0,0,1-3.027,3.027H140.454a3.027,3.027,0,0,1-3.027-3.027V43.589a21.189,21.189,0,1,0-42.378,0V67.805a3.027,3.027,0,0,0,6.054,0V43.589a15.135,15.135,0,1,1,30.27,0V152.562a21.172,21.172,0,0,0,33.35,17.336A97.926,97.926,0,0,1,27.881,166.43a3,3,0,0,0,.573-1.76V79.914a3.027,3.027,0,0,0-6.054,0v80.431A97.965,97.965,0,0,1,26.253,31.429,21.073,21.073,0,0,0,22.4,43.589V67.805a3.027,3.027,0,1,0,6.054,0V43.589a15.135,15.135,0,1,1,30.27,0V152.562a21.189,21.189,0,0,0,42.379,0V79.914a3.027,3.027,0,0,0-6.054,0v72.649a15.135,15.135,0,0,1-30.27,0V43.589a21.172,21.172,0,0,0-33.35-17.336A97.928,97.928,0,0,1,168.27,29.721,3,3,0,0,0,167.7,31.481ZM152.562,167.7a15.135,15.135,0,0,1-15.135-15.135V79.914a3.027,3.027,0,0,1,3.027-3.027H164.67a3.027,3.027,0,0,1,3.027,3.027v72.649A15.135,15.135,0,0,1,152.562,167.7Zm21.189-87.329V35.807A97.963,97.963,0,0,1,169.9,164.723a21.069,21.069,0,0,0,3.853-12.161V80.368h0Z"/>
</svg>
