<svg xmlns="http://www.w3.org/2000/svg" xmlns:xlink="http://www.w3.org/1999/xlink" width="800" height="800" viewBox="0 0 800 800">
  <defs>
    <style>
      .cls-1 {
        fill: #c5d0d8;
        fill-rule: evenodd;
        filter: url(#filter);
      }
    </style>
    <filter id="filter" x="141" y="141" width="518" height="518" filterUnits="userSpaceOnUse">
      <feFlood result="flood" flood-color="#e9ecef"/>
      <feComposite result="composite" operator="in" in2="SourceGraphic"/>
      <feBlend result="blend" in2="SourceGraphic"/>
    </filter>
  </defs>
  <path id="logo_210626_circle" class="cls-1" d="M585.541,219.294q1.843,1.891,3.647,3.822Q587.384,221.187,585.541,219.294Zm3.778,3.961q1.719,1.841,3.4,3.715Q591.036,225.1,589.319,223.255Zm3.793,4.153q1.643,1.838,3.251,3.705Q594.755,229.244,593.112,227.408ZM207.281,573.03q1.683,1.874,3.4,3.715Q208.962,574.9,207.281,573.03Zm-0.393-.438q-1.643-1.837-3.251-3.705Q205.245,570.756,206.888,572.592ZM200,564.573q1.617,1.963,3.275,3.892Q201.621,566.535,200,564.573Zm13.753-344.547q3.083-3.191,6.273-6.273Q216.836,216.836,213.753,220.026ZM584,224v96a8,8,0,0,1-8,8H512a8,8,0,0,1-8-8V256a56,56,0,0,0-112,0v64a8,8,0,0,0,16,0V256a40,40,0,0,1,80,0V544a56,56,0,0,0,88.234,45.8,259,259,0,0,1-365.422-12.912q1.8,1.929,3.647,3.822A7.948,7.948,0,0,0,216,576V352a8,8,0,0,0-16,0V564.573a259.005,259.005,0,0,1,13.28-344.057q-1.551,1.613-3.076,3.25A55.744,55.744,0,0,0,200,256v64a8,8,0,0,0,16,0V256a40,40,0,0,1,80,0V544a56,56,0,0,0,112,0V352a8,8,0,0,0-16,0V544a40,40,0,0,1-80,0V256a56,56,0,0,0-88.234-45.8q-1.639,1.524-3.25,3.076a258.99,258.99,0,0,1,365.025,6.014A7.948,7.948,0,0,0,584,224Zm-7.766,365.8q1.639-1.524,3.25-3.076Q577.872,588.271,576.234,589.8ZM544,584a40,40,0,0,1-40-40V352a8,8,0,0,1,8-8h64a8,8,0,0,1,8,8V544A40,40,0,0,1,544,584Zm42.72-4.516q1.551-1.613,3.076-3.25Q588.272,577.873,586.72,579.484Zm-0.473.49q-3.082,3.19-6.273,6.273Q583.165,583.165,586.247,579.974ZM600,353.2V235.427q-1.617-1.963-3.275-3.892a259,259,0,0,1-6.929,344.7A55.744,55.744,0,0,0,600,544V353.2h0Z"/>
</svg>
